<svg width="478" height="103" viewBox="0 0 478 103" fill="none" xmlns="http://www.w3.org/2000/svg">
<path d="M0.117188 0.785156H51.5918C62.8027 0.785156 71.1882 3.45117 76.748 8.7832C82.3535 14.1152 85.1562 21.7031 85.1562 31.5469C85.1562 41.6641 82.1029 49.571 75.9961 55.2676C69.9349 60.9642 60.6608 63.8125 48.1738 63.8125H31.2207V101H0.117188V0.785156ZM31.2207 43.5098H38.8086C44.7786 43.5098 48.9714 42.4844 51.3867 40.4336C53.8021 38.3372 55.0098 35.6712 55.0098 32.4355C55.0098 29.291 53.9616 26.625 51.8652 24.4375C49.7689 22.25 45.8268 21.1562 40.0391 21.1562H31.2207V43.5098ZM126.341 51.918L99.7496 49.1152C100.752 44.4668 102.188 40.821 104.056 38.1777C105.97 35.4889 108.705 33.1647 112.259 31.2051C114.811 29.7923 118.321 28.6986 122.787 27.9238C127.253 27.1491 132.084 26.7617 137.279 26.7617C145.619 26.7617 152.318 27.2402 157.377 28.1973C162.435 29.1087 166.651 31.0456 170.023 34.0078C172.393 36.0586 174.261 38.9753 175.629 42.7578C176.996 46.4948 177.679 50.0723 177.679 53.4902V85.5508C177.679 88.9688 177.884 91.6576 178.295 93.6172C178.75 95.5312 179.707 97.9922 181.166 101H155.052C154.004 99.1315 153.321 97.7188 153.002 96.7617C152.683 95.7591 152.364 94.2096 152.045 92.1133C148.399 95.6224 144.776 98.1289 141.175 99.6328C136.254 101.638 130.534 102.641 124.017 102.641C115.358 102.641 108.773 100.635 104.261 96.625C99.7952 92.6146 97.5621 87.6699 97.5621 81.791C97.5621 76.2767 99.1799 71.7422 102.416 68.1875C105.651 64.6328 111.621 61.9896 120.326 60.2578C130.762 58.1615 137.53 56.7031 140.629 55.8828C143.727 55.0169 147.009 53.9004 150.472 52.5332C150.472 49.1152 149.766 46.7227 148.353 45.3555C146.94 43.9883 144.457 43.3047 140.902 43.3047C136.345 43.3047 132.927 44.0339 130.648 45.4922C128.871 46.6315 127.435 48.7734 126.341 51.918ZM150.472 66.5469C146.644 67.9141 142.657 69.1217 138.509 70.1699C132.858 71.6738 129.281 73.1549 127.777 74.6133C126.227 76.1172 125.453 77.8262 125.453 79.7402C125.453 81.9277 126.205 83.7279 127.709 85.1406C129.258 86.5078 131.514 87.1914 134.476 87.1914C137.575 87.1914 140.446 86.4395 143.089 84.9355C145.778 83.4316 147.67 81.6087 148.763 79.4668C149.903 77.2793 150.472 74.4538 150.472 70.9902V66.5469ZM196.032 28.4023H222.077V40.2969C224.584 35.1471 227.159 31.6152 229.802 29.7012C232.491 27.7415 235.795 26.7617 239.714 26.7617C243.816 26.7617 248.305 28.0378 253.181 30.5898L244.568 50.4141C241.286 49.0469 238.689 48.3633 236.775 48.3633C233.129 48.3633 230.303 49.8672 228.298 52.875C225.427 57.1133 223.991 65.043 223.991 76.6641V101H196.032V28.4023ZM284.727 51.918L258.136 49.1152C259.138 44.4668 260.574 40.821 262.442 38.1777C264.356 35.4889 267.091 33.1647 270.645 31.2051C273.197 29.7923 276.707 28.6986 281.173 27.9238C285.639 27.1491 290.47 26.7617 295.665 26.7617C304.005 26.7617 310.704 27.2402 315.763 28.1973C320.821 29.1087 325.037 31.0456 328.409 34.0078C330.779 36.0586 332.647 38.9753 334.014 42.7578C335.382 46.4948 336.065 50.0723 336.065 53.4902V85.5508C336.065 88.9688 336.27 91.6576 336.68 93.6172C337.136 95.5312 338.093 97.9922 339.552 101H313.438C312.39 99.1315 311.707 97.7188 311.388 96.7617C311.069 95.7591 310.749 94.2096 310.43 92.1133C306.785 95.6224 303.162 98.1289 299.561 99.6328C294.639 101.638 288.92 102.641 282.403 102.641C273.744 102.641 267.159 100.635 262.647 96.625C258.181 92.6146 255.948 87.6699 255.948 81.791C255.948 76.2767 257.566 71.7422 260.802 68.1875C264.037 64.6328 270.007 61.9896 278.712 60.2578C289.148 58.1615 295.916 56.7031 299.014 55.8828C302.113 55.0169 305.395 53.9004 308.858 52.5332C308.858 49.1152 308.152 46.7227 306.739 45.3555C305.326 43.9883 302.843 43.3047 299.288 43.3047C294.731 43.3047 291.313 44.0339 289.034 45.4922C287.257 46.6315 285.821 48.7734 284.727 51.918ZM308.858 66.5469C305.03 67.9141 301.042 69.1217 296.895 70.1699C291.244 71.6738 287.667 73.1549 286.163 74.6133C284.613 76.1172 283.839 77.8262 283.839 79.7402C283.839 81.9277 284.591 83.7279 286.095 85.1406C287.644 86.5078 289.9 87.1914 292.862 87.1914C295.961 87.1914 298.832 86.4395 301.475 84.9355C304.164 83.4316 306.055 81.6087 307.149 79.4668C308.289 77.2793 308.858 74.4538 308.858 70.9902V66.5469ZM354.282 0.785156H382.377V35.5117C385.157 32.5951 388.302 30.4076 391.811 28.9492C395.366 27.4909 399.285 26.7617 403.569 26.7617C412.41 26.7617 419.724 29.9518 425.512 36.332C431.3 42.6667 434.194 51.7812 434.194 63.6758C434.194 71.6055 432.872 78.6009 430.229 84.6621C427.586 90.6777 423.917 95.1895 419.223 98.1973C414.575 101.16 409.402 102.641 403.705 102.641C398.829 102.641 394.363 101.592 390.307 99.4961C387.254 97.8555 383.927 94.7793 380.327 90.2676V101H354.282V0.785156ZM382.172 64.4961C382.172 70.7396 383.334 75.2741 385.659 78.0996C388.028 80.8796 391.013 82.2695 394.614 82.2695C397.941 82.2695 400.72 80.9023 402.954 78.168C405.232 75.388 406.371 70.7396 406.371 64.2227C406.371 58.4805 405.255 54.265 403.022 51.5762C400.834 48.8874 398.168 47.543 395.024 47.543C391.241 47.543 388.142 48.9557 385.727 51.7812C383.357 54.5612 382.172 58.7995 382.172 64.4961ZM449.881 0.785156H477.771V101H449.881V0.785156Z" fill="white"/>
</svg>
