<?xml version="1.0" encoding="UTF-8"?>
<svg xmlns="http://www.w3.org/2000/svg" id="Layer_2" viewBox="0 0 1645.34 430.62">
  <defs>
    <style>.cls-1{fill:#fff;}</style>
  </defs>
  <g id="Layer_1-2">
    <g>
      <path class="cls-1" d="m1487.3,244.85c29.97,0,59.93-.07,89.9.07,4.86.02,6.83-1.08,5.04-6.27-7.66-22.23-20.87-39.97-41.77-51.37-21.5-11.71-44.55-15.01-68.65-11.83-38.19,5.04-64.71,24.87-77.77,61.57-2.63,7.41-2.28,7.8,5.79,7.81,29.15.02,58.3,0,87.45,0m30.03,51.8c-40.17,0-80.34,0-120.5,0-7.21,0-7.21.03-5.75,7.2,7.75,37.88,39.63,66.85,78.23,71.45,20.74,2.47,41.1,1.46,60.89-5.59,14.35-5.11,26.43-13.61,35.5-25.93,2.59-3.52,5.54-4.86,9.79-4.83,16.51.14,33.03.02,49.55.08,7.19.03,7.67.77,4.53,7.26-22.37,46.1-60.09,71.86-109.62,80.85-34.17,6.2-68.01,3.83-100.1-10.34-52.48-23.16-82.22-63.74-89.55-120.44-4.48-34.65.66-67.97,17.99-98.6,23.57-41.65,60.01-65.75,106.76-74.07,34.85-6.2,69.25-3.68,101.77,11.17,49.5,22.59,77.59,61.7,86.21,115.03,2.12,13.08,2.21,26.33,2.3,39.57.04,5.57-1.9,7.32-7.5,7.29-40.17-.2-80.34-.1-120.5-.1"></path>
      <path class="cls-1" d="m29.13,336.28c7.75,0,15.5.03,23.24-.02,3.12-.02,5.42.5,6.07,4.33,2.94,17.25,14.41,27.07,30.11,32.06,23.6,7.5,47.44,7.39,70.78-1.23,12.77-4.72,22.54-13.03,25.87-27.11,3.19-13.51-1.89-24.82-14.17-31.19-11.05-5.74-23.21-7.39-35.3-9.23-21.73-3.3-43.72-5.04-65.02-10.91-17.28-4.77-33.65-11.25-46.49-24.44-10.82-11.12-16.77-24.65-17.95-39.87-3.81-48.85,20.17-85.58,66.9-100.34,38.68-12.21,77.32-11.11,114.16,7.42,27.88,14.03,44.62,36.7,48.96,67.97,1.06,7.65.42,8.48-7.38,8.49-14.48.03-28.96-.02-43.43.02-3.04,0-5.7-.24-6.44-4-3.51-17.75-15.74-27.07-32.03-31.67-19.36-5.46-38.71-4.89-57.57,2.53-15.74,6.19-24.91,18.82-25.24,33.51-.26,11.51,4.94,19.39,14.99,24.44,10.76,5.41,22.5,6.97,34.18,8.74,23.75,3.57,47.78,5.45,70.93,12.41,16.84,5.06,32.51,12.29,44.21,25.93,15.03,17.52,17.96,38.45,15.04,60.34-5.19,39.03-28.68,63.57-64.65,76.24-38.37,13.52-77.39,13.21-115.63-.82-29.17-10.71-50.62-30-59.9-60.74-1.71-5.66-2.86-11.43-3.34-17.35-.31-3.91,1.29-5.6,5.24-5.54,7.95.11,15.9.03,23.85.03"></path>
      <path class="cls-1" d="m1137.6,211.26v202.22q0,9.05-9.12,9.07c-13.66,0-27.33-.29-40.98.12-6.17.19-8.1-1.77-8.06-7.95.26-31.77.12-63.54.12-95.3V11.5c0-2.24.06-4.48.04-6.72-.03-3.26,1.44-4.8,4.82-4.78,16.11.06,32.22.05,48.32,0,3.36-.02,4.88,1.47,4.82,4.77-.03,2.03.04,4.07.04,6.1v200.39"></path>
      <path class="cls-1" d="m301.18,275.48c0-46.22,0-92.44,0-138.66,0-8.44.04-8.46,8.5-8.48,13.45,0,26.91,0,40.37,0,9.14,0,9.17.02,9.17,9.02,0,84.3,0,168.6,0,252.9,0,8.76-.14,17.51.04,26.27.09,4.41-1.56,6.15-6.08,6.09-14.48-.18-28.96-.05-43.43-.06-8.53,0-8.57-.03-8.57-8.41-.02-46.22,0-92.44,0-138.66"></path>
      <path class="cls-1" d="m943.71,275.44c0-46.23,0-92.44,0-138.66,0-8.42.04-8.43,8.54-8.44,13.66,0,27.32,0,40.97,0,8.48,0,8.51.03,8.51,8.43.02,88.58,0,177.16,0,265.73,0,5.09-.07,10.17-.03,15.27.02,3.29-1.46,4.78-4.82,4.77-16.1-.06-32.21-.06-48.31,0-3.37,0-4.86-1.5-4.83-4.77.03-2.03-.04-4.07-.04-6.11v-136.22"></path>
      <path class="cls-1" d="m1273.45,275.4c0,46.22,0,92.44,0,138.66,0,8.45-.03,8.47-8.47,8.48-13.46.02-26.91,0-40.37,0-9.17,0-9.2,0-9.2-9.01,0-71.47,0-142.94,0-214.41,0-21.17.13-42.36-.09-63.53-.06-5.51,1.7-7.5,7.37-7.37,14.06.34,28.13.1,42.2.11,8.5,0,8.55.03,8.55,8.4.02,46.22,0,92.44,0,138.66"></path>
      <path class="cls-1" d="m290.08,43.02c-.09-22.57,17.33-40.22,39.68-40.19,22.5.03,39.86,17.21,40.23,39.84.37,22.04-17.36,40.25-39.57,40.65-22.29.41-40.26-17.55-40.35-40.3"></path>
      <path class="cls-1" d="m932.61,42.99c-.08-22.57,17.38-40.22,39.71-40.17,22.52.06,39.85,17.25,40.2,39.88.33,22.04-17.42,40.25-39.6,40.63-22.3.37-40.23-17.58-40.31-40.34"></path>
      <path class="cls-1" d="m1204.3,42.6c.05-22.21,17.33-39.6,39.5-39.77,22.64-.17,40.48,17.61,40.41,40.27-.08,22.23-18.08,40.34-39.99,40.23-22.58-.1-39.97-17.84-39.92-40.74"></path>
      <path class="cls-1" d="m628.01,323.2c-2.55,4.09-3.9,8.78-3.9,13.6,0,14.61,12.32,26.49,27.47,26.49s27.48-11.88,27.48-26.49c0-4.9-1.39-9.66-4.03-13.81l-23.44-34.06-23.58,34.27Zm251.27,100.28h-52.51c-1.96,0-3.54-1.58-3.54-3.53v-179.21c0-33.77-28.18-61.23-62.83-61.23-20.9,0-40.33,10.07-52.06,26.95l-.32.47-20.26,29.44,37.02,53.81c9.07,13.9,13.87,30.03,13.87,46.62,0,47.46-39.05,86.07-87.06,86.07-56.05,0-99.91-52.66-83.61-110.57,2.17-7.71,5.7-14.99,10.14-21.67l.5-.77,36.82-53.5-20.43-29.69h0c-11.72-17.01-31.24-27.17-52.23-27.17-34.64,0-62.83,27.46-62.83,61.23v179.21c0,1.95-1.58,3.53-3.53,3.53h-52.51c-1.96,0-3.54-1.58-3.54-3.53v-179.21c0-66.61,54.92-120.81,122.42-120.81,40.58,0,78.44,19.79,101.28,52.95l7.54,10.95,7.5-10.91c22.83-33.17,60.7-52.98,101.3-52.98,67.5,0,122.41,54.2,122.41,120.81v179.21c0,1.95-1.58,3.53-3.53,3.53"></path>
    </g>
  </g>
</svg>
