<?xml version="1.0" encoding="UTF-8"?>
<svg xmlns="http://www.w3.org/2000/svg" id="Layer_2" viewBox="0 0 308.81 160.74">
  <defs>
    <style>.cls-1{fill:#03bfd9;}</style>
  </defs>
  <g id="Layer_1-2">
    <path class="cls-1" d="m307.83,31.63c.54-.02.98-.45.98-.99V1.02c0-.56-.46-1.02-1.02-1.01-21.15.32-40.79,10.77-52.72,28.08h0l-3.18,4.62c-.4.58-1.25.58-1.65,0l-3.16-4.59C234.97,10.51,214.88,0,193.34,0c-35.81,0-64.95,28.75-64.95,64.1v12.38c-.03.14-.08.26-.08.41v19.75c0,17.26-13.89,31.41-31.34,32.42v31.63c34.89-1.05,62.96-29.37,62.96-64.05v-12.38c.03-.14.08-.26.08-.41v-19.75c0-17.91,14.96-32.48,33.34-32.48,11.08,0,21.4,5.34,27.62,14.3l.17.25,10.36,15.06c.23.34.23.79,0,1.13l-19.25,27.99c-4.81,7.38-7.36,15.93-7.36,24.74,0,25.18,20.72,45.67,46.19,45.67,29.74,0,53.01-27.94,44.36-58.67-1.15-4.09-3.03-7.95-5.38-11.5l-.27-.4-19.14-27.82c-.23-.34-.23-.79,0-1.13l10.45-15.18h0c6.04-8.76,15.97-14.1,26.73-14.41Zm-42.18,83.44c0,7.75-6.54,14.05-14.58,14.05s-14.58-6.3-14.58-14.05c0-2.6.74-5.13,2.14-7.33l11.62-16.88c.4-.58,1.25-.58,1.65,0l11.69,16.99c1.35,2.17,2.07,4.66,2.07,7.22Z"></path>
    <path class="cls-1" d="m94.96,129.04c-17.55-.92-31.54-15.07-31.54-32.4v-19.75c0-.15-.05-.27-.08-.41v-12.38C63.33,29.29,35.07.9,0,.04v31.65c17.63.83,31.72,15.03,31.72,32.41v19.75c0,.15.05.27.08.41v12.38c0,34.75,28.17,63.11,63.16,64.05h0s2,0,2,0v-31.65h-2Z"></path>
  </g>
</svg>
