<?xml version="1.0" encoding="UTF-8"?>
<svg xmlns="http://www.w3.org/2000/svg" id="Layer_2" data-name="Layer 2" viewBox="0 0 186.39 135.23">
  <defs>
    <style>
      .cls-1 {
        fill: #fff;
      }
    </style>
  </defs>
  <g id="Layer_1-2" data-name="Layer 1">
    <path class="cls-1" d="m185.41,41.46c-.51-3.36-1.36-6.61-2.52-9.71-.09-.25-.2-.49-.3-.74-.28-.72-.58-1.44-.9-2.14-.21-.49-.44-.95-.67-1.43-.03-.07-.07-.15-.1-.22-1.9-3.98-4.25-7.53-7.02-10.63C165.07,6.43,152.07,0,137.56,0s-27.31,6.34-36.13,16.36c-2.28,2.54-8.11,11.32-8.11,11.32l-.12.17-.12-.17s-5.84-8.79-8.11-11.32C76.14,6.34,63.23,0,48.83,0S21.32,6.43,12.5,16.58c-2.77,3.1-5.12,6.65-7.02,10.63-.04.07-.07.15-.1.22-.23.48-.45.94-.67,1.43-.32.71-.62,1.42-.9,2.14-.1.25-.2.49-.3.74-1.16,3.1-2.02,6.35-2.52,9.71-.64,3.74-.99,7.71-.99,11.91v80.02c0,.33.12.62.3.87.24.57.8.98,1.46.98h23.45c.87,0,1.58-.71,1.58-1.58V53.64c0-3.16.58-7.76,1.18-10.47,2.03-9.35,10.4-16.81,20.79-16.81,7.52,0,13.79,3.81,17.88,9.8.51.69,10.31,14.99,10.31,14.99l-16.44,23.89-.23.34c-1.98,2.98-3.56,6.23-4.52,9.68-7.28,25.85,12.3,49.37,37.33,49.37,21.43,0,38.87-17.24,38.87-38.43,0-2.41-.25-4.81-.7-7.15.03-.97-.16-2.22-.6-3.79-.97-3.44-2.55-6.69-4.52-9.68l-.23-.34-16.44-23.89s9.8-14.3,10.31-14.99c4.09-5.99,10.37-9.8,17.88-9.8,10.39,0,18.76,7.46,20.79,16.81.6,2.71,1.18,7.31,1.18,10.47v80.02c0,.87.7,1.58,1.58,1.58h23.45c.66,0,1.22-.41,1.46-.98.17-.25.3-.54.3-.87V53.37c0-4.2-.35-8.17-.99-11.91Zm-92.33,66.35c-6.76,0-12.26-5.3-12.26-11.82,0-2.15.6-4.25,1.74-6.08l10.53-15.3,10.46,15.21c1.18,1.85,1.8,3.98,1.8,6.17,0,6.52-5.5,11.82-12.26,11.82Z"></path>
  </g>
</svg>
