<?xml version="1.0" encoding="UTF-8"?>
<svg xmlns="http://www.w3.org/2000/svg" id="Layer_2" viewBox="0 0 156 156">
  <defs>
    <style>.cls-1{fill:none;}.cls-2{fill:#03bfd9;}</style>
  </defs>
  <g id="Layer_1-2">
    <path class="cls-2" d="m70.39,94.63c-.82,1.32-1.26,2.84-1.26,4.39,0,4.72,3.98,8.55,8.87,8.55s8.88-3.83,8.88-8.55c0-1.58-.45-3.12-1.3-4.46l-7.57-11-7.62,11.07h0Zm81.15,32.38h-16.96c-.63,0-1.14-.51-1.14-1.14v-57.88c0-10.9-9.1-19.77-20.29-19.77-6.75,0-13.03,3.25-16.81,8.7l-.1.15-6.54,9.51,11.96,17.38c2.93,4.49,4.48,9.7,4.48,15.06,0,15.33-12.61,27.8-28.12,27.8-18.1,0-32.27-17.01-27-35.71.7-2.49,1.84-4.84,3.27-7l.16-.25,11.89-17.28-6.6-9.59c-3.79-5.49-10.09-8.78-16.87-8.78-11.19,0-20.29,8.87-20.29,19.77v57.88c0,.63-.51,1.14-1.14,1.14H4.47c-.63,0-1.14-.51-1.14-1.14v-57.88c0-21.51,17.74-39.02,39.54-39.02,13.11,0,25.33,6.39,32.71,17.1l2.44,3.54,2.42-3.53c7.38-10.71,19.61-17.11,32.72-17.11,21.8,0,39.53,17.5,39.53,39.02v57.88c0,.63-.51,1.14-1.14,1.14"></path>
    <rect class="cls-1" width="156" height="156"></rect>
  </g>
</svg>
