<?xml version="1.0" encoding="UTF-8"?>
<svg xmlns="http://www.w3.org/2000/svg" id="Layer_2" viewBox="0 0 251.37 138.9">
  <defs>
    <style>.cls-1{fill:#03bfd9;}</style>
  </defs>
  <g id="Layer_1-2">
    <path class="cls-1" d="m250.49,0c-18.27.28-35.25,9.31-45.56,24.27h0l-2.74,3.99c-.34.5-1.08.5-1.42,0l-2.73-3.97C187.56,9.08,170.2,0,151.59,0c-30.95,0-56.13,24.85-56.13,55.39v10.7c-.03.12-.07.23-.07.35v17.07c0,14.91-12,27.14-27.08,28.02v-.02h-1.73c-15.16-.79-27.26-13.02-27.26-27.99v-17.07c0-.13-.04-.24-.07-.35v-10.7C39.25,30.65,22.72,9.68,0,2.59v30.09c7.22,5.1,11.93,13.37,11.93,22.71v17.07c0,.13.04.24.07.35v10.7c0,30.03,24.34,54.53,54.58,55.35h0s1.73,0,1.73,0c30.15-.91,54.4-25.38,54.4-55.35v-10.7c.03-.12.07-.23.07-.35v-17.07c0-15.48,12.92-28.07,28.81-28.07,9.58,0,18.49,4.62,23.87,12.35l.15.22,8.95,13.01c.2.29.2.68,0,.98l-16.64,24.18c-4.16,6.37-6.36,13.77-6.36,21.38,0,21.76,17.91,39.46,39.92,39.46,25.7,0,45.81-24.14,38.33-50.7-1-3.54-2.62-6.87-4.65-9.93l-.23-.35-16.54-24.04c-.2-.29-.2-.68,0-.98l9.03-13.12h0c5.22-7.57,13.8-12.18,23.1-12.45.47-.01.85-.39.85-.86V.88c0-.48-.4-.88-.88-.87Zm-49.01,111.57c-6.95,0-12.6-5.45-12.6-12.14,0-2.25.64-4.43,1.84-6.33l10.04-14.58c.34-.5,1.08-.5,1.42,0l10.1,14.68c1.17,1.87,1.79,4.03,1.79,6.24,0,6.7-5.65,12.14-12.59,12.14Z"></path>
  </g>
</svg>
