<?xml version="1.0" encoding="UTF-8"?>
<svg xmlns="http://www.w3.org/2000/svg" id="Layer_2" viewBox="0 0 251.37 138.82">
  <defs>
    <style>.cls-1{fill:#03bfd9;}</style>
  </defs>
  <g id="Layer_1-2">
    <path class="cls-1" d="m239.19,83.47v-17.07c0-.13-.04-.24-.07-.35v-10.7C239.12,25.28,214.7.74,184.39,0h0s-1.73,0-1.73,0h0c-30.23.81-54.58,25.32-54.58,55.34v10.7c-.03.12-.07.23-.07.35v17.07c0,15-12.15,27.26-27.36,28h-1.38c-15.16-.79-27.26-13.02-27.26-27.99v-17.07c0-.13-.04-.24-.07-.35v-10.7C71.95,25.28,47.53.74,17.22,0h0s-1.73,0-1.73,0h0C10.11.15,4.91,1.06,0,2.6v30.16c4.39-3.14,9.72-5.11,15.5-5.41h1.73c15.23.71,27.41,12.98,27.41,28v17.07c0,.13.04.24.07.35v10.7c0,30.03,24.34,54.53,54.58,55.35h0s1.33,0,1.33,0h0s.07,0,.11,0h.29c30.12-.96,54.33-25.4,54.33-55.35v-10.7c.03-.12.07-.23.07-.35v-17.07c0-14.97,12.09-27.2,27.26-27.99h1.73c15.23.71,27.41,12.98,27.41,28v17.07c0,.13.04.24.07.35v10.7c0,24.82,16.64,45.86,39.49,52.87v-30c-7.36-5.08-12.17-13.43-12.17-22.87Z"></path>
  </g>
</svg>
