<?xml version="1.0" encoding="UTF-8"?>
<svg xmlns="http://www.w3.org/2000/svg" id="Layer_2" viewBox="0 0 251.37 138.82">
  <defs>
    <style>.cls-1{fill:#03bfd9;}</style>
  </defs>
  <g id="Layer_1-2">
    <path class="cls-1" d="m250.74,0h0c-30.23.81-54.58,25.32-54.58,55.34v10.7c-.03.12-.07.23-.07.35v17.07c0,15.02-12.18,27.28-27.41,28h0s-1.73,0-1.73,0c-15.16-.79-27.26-13.02-27.26-27.99v-17.07c0-.13-.04-.24-.07-.35v-10.7C139.63,25.28,115.2.74,84.9,0h0s-1.73,0-1.73,0h0C52.94.82,28.6,25.32,28.6,55.35v10.7c-.03.12-.07.23-.07.35v17.07c0,15.02-12.18,27.28-27.41,28h0s-1.12,0-1.12,0v27.35h1.12c30.3-.73,54.73-25.27,54.73-55.35v-10.7c.03-.12.07-.23.07-.35v-17.07c0-14.97,12.09-27.2,27.26-27.99h1.73c15.23.71,27.41,12.98,27.41,28v17.07c0,.13.04.24.07.35v10.7c0,30.03,24.34,54.53,54.58,55.35h0s1.73,0,1.73,0h0c30.3-.73,54.73-25.27,54.73-55.35v-10.7c.03-.12.07-.23.07-.35v-17.07c0-14.97,12.09-27.2,27.26-27.99h.63V0h-.63Z"></path>
  </g>
</svg>
